<mxfile host="app.diagrams.net" modified="2023-09-28T08:59:53.526Z" agent="Mozilla/5.0 (Windows NT 6.1; Win64; x64) AppleWebKit/537.36 (KHTML, like Gecko) Chrome/109.0.0.0 Safari/537.36" etag="vv4RNqkzG38cXSPzlvvr" version="21.8.2" type="device">
  <diagram id="Z7b99tZVurUwSrPOn-9z" name="Page-1">
    <mxGraphModel dx="1600" dy="873" grid="0" gridSize="10" guides="1" tooltips="1" connect="1" arrows="1" fold="1" page="0" pageScale="1" pageWidth="827" pageHeight="1169" math="0" shadow="0">
      <root>
        <mxCell id="0" />
        <mxCell id="1" parent="0" />
        <mxCell id="hGWeb-G8HRpZfb4ipiGh-1" value="Товар" style="rounded=0;whiteSpace=wrap;html=1;" parent="1" vertex="1">
          <mxGeometry x="220" y="150" width="120" height="50" as="geometry" />
        </mxCell>
        <mxCell id="hGWeb-G8HRpZfb4ipiGh-3" value="Название сладости" style="ellipse;whiteSpace=wrap;html=1;" parent="1" vertex="1">
          <mxGeometry x="240" y="30" width="130" height="70" as="geometry" />
        </mxCell>
        <mxCell id="hGWeb-G8HRpZfb4ipiGh-4" value="Цена" style="ellipse;whiteSpace=wrap;html=1;" parent="1" vertex="1">
          <mxGeometry x="90" y="50" width="130" height="70" as="geometry" />
        </mxCell>
        <mxCell id="hGWeb-G8HRpZfb4ipiGh-5" value="Картинка" style="ellipse;whiteSpace=wrap;html=1;" parent="1" vertex="1">
          <mxGeometry x="30" y="140" width="130" height="70" as="geometry" />
        </mxCell>
        <mxCell id="8fOQJ0gHnapcjapYstNZ-1" style="edgeStyle=orthogonalEdgeStyle;rounded=0;orthogonalLoop=1;jettySize=auto;html=1;entryX=0.5;entryY=0;entryDx=0;entryDy=0;" parent="1" source="hGWeb-G8HRpZfb4ipiGh-6" target="hGWeb-G8HRpZfb4ipiGh-10" edge="1">
          <mxGeometry relative="1" as="geometry" />
        </mxCell>
        <mxCell id="8fOQJ0gHnapcjapYstNZ-2" style="edgeStyle=orthogonalEdgeStyle;rounded=0;orthogonalLoop=1;jettySize=auto;html=1;entryX=0.5;entryY=0;entryDx=0;entryDy=0;" parent="1" source="hGWeb-G8HRpZfb4ipiGh-6" target="hGWeb-G8HRpZfb4ipiGh-7" edge="1">
          <mxGeometry relative="1" as="geometry" />
        </mxCell>
        <mxCell id="hGWeb-G8HRpZfb4ipiGh-6" value="Пользователь" style="rounded=0;whiteSpace=wrap;html=1;" parent="1" vertex="1">
          <mxGeometry x="160" y="430" width="120" height="50" as="geometry" />
        </mxCell>
        <mxCell id="hGWeb-G8HRpZfb4ipiGh-7" value="Имя" style="ellipse;whiteSpace=wrap;html=1;" parent="1" vertex="1">
          <mxGeometry x="260" y="550" width="130" height="70" as="geometry" />
        </mxCell>
        <mxCell id="hGWeb-G8HRpZfb4ipiGh-10" value="Номер телефона" style="ellipse;whiteSpace=wrap;html=1;" parent="1" vertex="1">
          <mxGeometry x="40" y="550" width="130" height="70" as="geometry" />
        </mxCell>
        <mxCell id="hGWeb-G8HRpZfb4ipiGh-38" style="edgeStyle=elbowEdgeStyle;rounded=0;orthogonalLoop=1;jettySize=auto;html=1;entryX=1;entryY=0.5;entryDx=0;entryDy=0;" parent="1" source="hGWeb-G8HRpZfb4ipiGh-12" target="hGWeb-G8HRpZfb4ipiGh-33" edge="1">
          <mxGeometry relative="1" as="geometry">
            <Array as="points">
              <mxPoint x="560" y="340" />
            </Array>
          </mxGeometry>
        </mxCell>
        <mxCell id="8fOQJ0gHnapcjapYstNZ-3" style="edgeStyle=orthogonalEdgeStyle;rounded=0;orthogonalLoop=1;jettySize=auto;html=1;entryX=0.5;entryY=0;entryDx=0;entryDy=0;" parent="1" source="hGWeb-G8HRpZfb4ipiGh-12" target="z4-uJtej0cMulvKEZiRt-5" edge="1">
          <mxGeometry relative="1" as="geometry" />
        </mxCell>
        <mxCell id="CAQWsTvgkimqhigpGzVV-2" style="edgeStyle=orthogonalEdgeStyle;rounded=0;orthogonalLoop=1;jettySize=auto;html=1;entryX=0;entryY=0.5;entryDx=0;entryDy=0;" parent="1" source="hGWeb-G8HRpZfb4ipiGh-12" target="CAQWsTvgkimqhigpGzVV-1" edge="1">
          <mxGeometry relative="1" as="geometry">
            <Array as="points">
              <mxPoint x="590" y="245" />
            </Array>
          </mxGeometry>
        </mxCell>
        <mxCell id="hGWeb-G8HRpZfb4ipiGh-12" value="Заказ" style="rounded=0;whiteSpace=wrap;html=1;" parent="1" vertex="1">
          <mxGeometry x="500" y="350" width="120" height="50" as="geometry" />
        </mxCell>
        <mxCell id="hGWeb-G8HRpZfb4ipiGh-39" style="edgeStyle=elbowEdgeStyle;rounded=0;orthogonalLoop=1;jettySize=auto;html=1;entryX=0.5;entryY=0;entryDx=0;entryDy=0;" parent="1" source="hGWeb-G8HRpZfb4ipiGh-33" target="hGWeb-G8HRpZfb4ipiGh-6" edge="1">
          <mxGeometry relative="1" as="geometry">
            <Array as="points">
              <mxPoint x="220" y="330" />
              <mxPoint x="120" y="400" />
              <mxPoint x="100" y="410" />
            </Array>
          </mxGeometry>
        </mxCell>
        <mxCell id="hGWeb-G8HRpZfb4ipiGh-33" value="Содержит" style="rhombus;whiteSpace=wrap;html=1;" parent="1" vertex="1">
          <mxGeometry x="330" y="257" width="110" height="70" as="geometry" />
        </mxCell>
        <mxCell id="hGWeb-G8HRpZfb4ipiGh-43" value="" style="endArrow=none;html=1;rounded=0;entryX=0;entryY=0.5;entryDx=0;entryDy=0;" parent="1" target="hGWeb-G8HRpZfb4ipiGh-1" edge="1">
          <mxGeometry width="50" height="50" relative="1" as="geometry">
            <mxPoint x="160" y="180" as="sourcePoint" />
            <mxPoint x="210" y="130" as="targetPoint" />
          </mxGeometry>
        </mxCell>
        <mxCell id="hGWeb-G8HRpZfb4ipiGh-44" value="" style="endArrow=none;html=1;rounded=0;entryX=0.167;entryY=-0.02;entryDx=0;entryDy=0;entryPerimeter=0;" parent="1" target="hGWeb-G8HRpZfb4ipiGh-1" edge="1">
          <mxGeometry width="50" height="50" relative="1" as="geometry">
            <mxPoint x="200" y="110" as="sourcePoint" />
            <mxPoint x="250" y="60" as="targetPoint" />
          </mxGeometry>
        </mxCell>
        <mxCell id="hGWeb-G8HRpZfb4ipiGh-45" value="" style="endArrow=none;html=1;rounded=0;" parent="1" edge="1">
          <mxGeometry width="50" height="50" relative="1" as="geometry">
            <mxPoint x="270" y="150" as="sourcePoint" />
            <mxPoint x="320" y="100" as="targetPoint" />
          </mxGeometry>
        </mxCell>
        <mxCell id="hGWeb-G8HRpZfb4ipiGh-47" value="Дата" style="ellipse;whiteSpace=wrap;html=1;" parent="1" vertex="1">
          <mxGeometry x="495" y="440" width="130" height="70" as="geometry" />
        </mxCell>
        <mxCell id="hGWeb-G8HRpZfb4ipiGh-48" value="" style="endArrow=none;html=1;rounded=0;exitX=0.5;exitY=0;exitDx=0;exitDy=0;entryX=0.5;entryY=1;entryDx=0;entryDy=0;" parent="1" source="hGWeb-G8HRpZfb4ipiGh-47" target="hGWeb-G8HRpZfb4ipiGh-12" edge="1">
          <mxGeometry width="50" height="50" relative="1" as="geometry">
            <mxPoint x="510" y="450" as="sourcePoint" />
            <mxPoint x="650" y="430" as="targetPoint" />
          </mxGeometry>
        </mxCell>
        <mxCell id="hGWeb-G8HRpZfb4ipiGh-50" value="Общая стоимость" style="ellipse;whiteSpace=wrap;html=1;" parent="1" vertex="1">
          <mxGeometry x="650" y="390" width="130" height="70" as="geometry" />
        </mxCell>
        <mxCell id="hGWeb-G8HRpZfb4ipiGh-51" value="" style="endArrow=none;html=1;rounded=0;exitX=1;exitY=0.5;exitDx=0;exitDy=0;entryX=0;entryY=0.5;entryDx=0;entryDy=0;" parent="1" source="hGWeb-G8HRpZfb4ipiGh-12" target="hGWeb-G8HRpZfb4ipiGh-50" edge="1">
          <mxGeometry width="50" height="50" relative="1" as="geometry">
            <mxPoint x="630" y="390" as="sourcePoint" />
            <mxPoint x="680" y="340" as="targetPoint" />
          </mxGeometry>
        </mxCell>
        <mxCell id="hGWeb-G8HRpZfb4ipiGh-52" value="Способ доставки" style="ellipse;whiteSpace=wrap;html=1;" parent="1" vertex="1">
          <mxGeometry x="650" y="280" width="130" height="70" as="geometry" />
        </mxCell>
        <mxCell id="hGWeb-G8HRpZfb4ipiGh-53" value="" style="endArrow=none;html=1;rounded=0;exitX=1;exitY=0.25;exitDx=0;exitDy=0;entryX=0;entryY=0.5;entryDx=0;entryDy=0;" parent="1" source="hGWeb-G8HRpZfb4ipiGh-12" target="hGWeb-G8HRpZfb4ipiGh-52" edge="1">
          <mxGeometry width="50" height="50" relative="1" as="geometry">
            <mxPoint x="630" y="390" as="sourcePoint" />
            <mxPoint x="680" y="340" as="targetPoint" />
          </mxGeometry>
        </mxCell>
        <mxCell id="hGWeb-G8HRpZfb4ipiGh-54" value="Код товара" style="ellipse;whiteSpace=wrap;html=1;" parent="1" vertex="1">
          <mxGeometry x="380" y="40" width="130" height="70" as="geometry" />
        </mxCell>
        <mxCell id="hGWeb-G8HRpZfb4ipiGh-55" value="" style="endArrow=none;html=1;rounded=0;entryX=0;entryY=1;entryDx=0;entryDy=0;" parent="1" target="hGWeb-G8HRpZfb4ipiGh-54" edge="1">
          <mxGeometry width="50" height="50" relative="1" as="geometry">
            <mxPoint x="340" y="160" as="sourcePoint" />
            <mxPoint x="390" y="110" as="targetPoint" />
          </mxGeometry>
        </mxCell>
        <mxCell id="z4-uJtej0cMulvKEZiRt-15" style="edgeStyle=orthogonalEdgeStyle;rounded=0;orthogonalLoop=1;jettySize=auto;html=1;entryX=0;entryY=0.5;entryDx=0;entryDy=0;exitX=0.5;exitY=0;exitDx=0;exitDy=0;" parent="1" source="z4-uJtej0cMulvKEZiRt-1" target="z4-uJtej0cMulvKEZiRt-14" edge="1">
          <mxGeometry relative="1" as="geometry" />
        </mxCell>
        <mxCell id="z4-uJtej0cMulvKEZiRt-1" value="Корзина" style="rounded=0;whiteSpace=wrap;html=1;" parent="1" vertex="1">
          <mxGeometry x="480" y="580" width="120" height="50" as="geometry" />
        </mxCell>
        <mxCell id="z4-uJtej0cMulvKEZiRt-2" value="Способ доставки" style="ellipse;whiteSpace=wrap;html=1;" parent="1" vertex="1">
          <mxGeometry x="640" y="640" width="130" height="70" as="geometry" />
        </mxCell>
        <mxCell id="z4-uJtej0cMulvKEZiRt-3" value="Общая стоимость" style="ellipse;whiteSpace=wrap;html=1;" parent="1" vertex="1">
          <mxGeometry x="475" y="680" width="130" height="70" as="geometry" />
        </mxCell>
        <mxCell id="8fOQJ0gHnapcjapYstNZ-4" style="edgeStyle=orthogonalEdgeStyle;rounded=0;orthogonalLoop=1;jettySize=auto;html=1;entryX=0;entryY=0.5;entryDx=0;entryDy=0;" parent="1" source="z4-uJtej0cMulvKEZiRt-5" target="z4-uJtej0cMulvKEZiRt-1" edge="1">
          <mxGeometry relative="1" as="geometry" />
        </mxCell>
        <mxCell id="z4-uJtej0cMulvKEZiRt-5" value="Содержит" style="rhombus;whiteSpace=wrap;html=1;" parent="1" vertex="1">
          <mxGeometry x="380" y="490" width="110" height="70" as="geometry" />
        </mxCell>
        <mxCell id="z4-uJtej0cMulvKEZiRt-11" value="" style="endArrow=none;html=1;rounded=0;exitX=0.5;exitY=0;exitDx=0;exitDy=0;entryX=0.5;entryY=1;entryDx=0;entryDy=0;" parent="1" source="z4-uJtej0cMulvKEZiRt-3" target="z4-uJtej0cMulvKEZiRt-1" edge="1">
          <mxGeometry width="50" height="50" relative="1" as="geometry">
            <mxPoint x="350" y="520" as="sourcePoint" />
            <mxPoint x="400" y="470" as="targetPoint" />
          </mxGeometry>
        </mxCell>
        <mxCell id="z4-uJtej0cMulvKEZiRt-12" value="" style="endArrow=none;html=1;rounded=0;entryX=0;entryY=0;entryDx=0;entryDy=0;exitX=1;exitY=0.5;exitDx=0;exitDy=0;" parent="1" source="z4-uJtej0cMulvKEZiRt-1" target="z4-uJtej0cMulvKEZiRt-2" edge="1">
          <mxGeometry width="50" height="50" relative="1" as="geometry">
            <mxPoint x="350" y="520" as="sourcePoint" />
            <mxPoint x="400" y="470" as="targetPoint" />
          </mxGeometry>
        </mxCell>
        <mxCell id="z4-uJtej0cMulvKEZiRt-16" style="edgeStyle=orthogonalEdgeStyle;rounded=0;orthogonalLoop=1;jettySize=auto;html=1;entryX=1;entryY=0.25;entryDx=0;entryDy=0;exitX=1;exitY=0.5;exitDx=0;exitDy=0;" parent="1" source="z4-uJtej0cMulvKEZiRt-14" target="hGWeb-G8HRpZfb4ipiGh-1" edge="1">
          <mxGeometry relative="1" as="geometry" />
        </mxCell>
        <mxCell id="z4-uJtej0cMulvKEZiRt-14" value="Содержит" style="rhombus;whiteSpace=wrap;html=1;" parent="1" vertex="1">
          <mxGeometry x="670" y="520" width="110" height="70" as="geometry" />
        </mxCell>
        <mxCell id="CAQWsTvgkimqhigpGzVV-4" style="edgeStyle=orthogonalEdgeStyle;rounded=0;orthogonalLoop=1;jettySize=auto;html=1;entryX=0.5;entryY=0;entryDx=0;entryDy=0;" parent="1" source="CAQWsTvgkimqhigpGzVV-1" target="CAQWsTvgkimqhigpGzVV-3" edge="1">
          <mxGeometry relative="1" as="geometry" />
        </mxCell>
        <mxCell id="CAQWsTvgkimqhigpGzVV-1" value="Содержит" style="rhombus;whiteSpace=wrap;html=1;" parent="1" vertex="1">
          <mxGeometry x="830" y="210" width="110" height="70" as="geometry" />
        </mxCell>
        <mxCell id="CAQWsTvgkimqhigpGzVV-3" value="Курьер" style="rounded=0;whiteSpace=wrap;html=1;" parent="1" vertex="1">
          <mxGeometry x="825" y="320" width="120" height="50" as="geometry" />
        </mxCell>
        <mxCell id="CAQWsTvgkimqhigpGzVV-5" value="Имя" style="ellipse;whiteSpace=wrap;html=1;" parent="1" vertex="1">
          <mxGeometry x="910" y="110" width="130" height="70" as="geometry" />
        </mxCell>
        <mxCell id="CAQWsTvgkimqhigpGzVV-7" value="Фамилия" style="ellipse;whiteSpace=wrap;html=1;" parent="1" vertex="1">
          <mxGeometry x="1050" y="150" width="130" height="70" as="geometry" />
        </mxCell>
        <mxCell id="CAQWsTvgkimqhigpGzVV-8" value="Отчество" style="ellipse;whiteSpace=wrap;html=1;" parent="1" vertex="1">
          <mxGeometry x="1120" y="220" width="130" height="70" as="geometry" />
        </mxCell>
        <mxCell id="CAQWsTvgkimqhigpGzVV-9" value="" style="endArrow=none;html=1;rounded=0;entryX=0.5;entryY=1;entryDx=0;entryDy=0;exitX=0.75;exitY=0;exitDx=0;exitDy=0;" parent="1" source="CAQWsTvgkimqhigpGzVV-3" target="CAQWsTvgkimqhigpGzVV-5" edge="1">
          <mxGeometry width="50" height="50" relative="1" as="geometry">
            <mxPoint x="620" y="440" as="sourcePoint" />
            <mxPoint x="670" y="390" as="targetPoint" />
          </mxGeometry>
        </mxCell>
        <mxCell id="CAQWsTvgkimqhigpGzVV-10" value="" style="endArrow=none;html=1;rounded=0;entryX=0;entryY=0.5;entryDx=0;entryDy=0;exitX=1;exitY=0;exitDx=0;exitDy=0;" parent="1" source="CAQWsTvgkimqhigpGzVV-3" target="CAQWsTvgkimqhigpGzVV-7" edge="1">
          <mxGeometry width="50" height="50" relative="1" as="geometry">
            <mxPoint x="620" y="440" as="sourcePoint" />
            <mxPoint x="670" y="390" as="targetPoint" />
          </mxGeometry>
        </mxCell>
        <mxCell id="CAQWsTvgkimqhigpGzVV-11" value="" style="endArrow=none;html=1;rounded=0;entryX=0;entryY=0.5;entryDx=0;entryDy=0;exitX=1;exitY=0.5;exitDx=0;exitDy=0;" parent="1" source="CAQWsTvgkimqhigpGzVV-3" target="CAQWsTvgkimqhigpGzVV-12" edge="1">
          <mxGeometry width="50" height="50" relative="1" as="geometry">
            <mxPoint x="950" y="350" as="sourcePoint" />
            <mxPoint x="670" y="390" as="targetPoint" />
          </mxGeometry>
        </mxCell>
        <mxCell id="CAQWsTvgkimqhigpGzVV-12" value="&lt;span style=&quot;color: rgb(0, 0, 0); font-family: Helvetica; font-size: 12px; font-style: normal; font-variant-ligatures: normal; font-variant-caps: normal; font-weight: 400; letter-spacing: normal; orphans: 2; text-align: center; text-indent: 0px; text-transform: none; widows: 2; word-spacing: 0px; -webkit-text-stroke-width: 0px; background-color: rgb(251, 251, 251); text-decoration-thickness: initial; text-decoration-style: initial; text-decoration-color: initial; float: none; display: inline !important;&quot;&gt;Дата рождения&lt;/span&gt;" style="ellipse;whiteSpace=wrap;html=1;" parent="1" vertex="1">
          <mxGeometry x="1160" y="300" width="130" height="70" as="geometry" />
        </mxCell>
        <mxCell id="CAQWsTvgkimqhigpGzVV-13" value="&lt;span style=&quot;color: rgb(0, 0, 0); font-family: Helvetica; font-size: 12px; font-style: normal; font-variant-ligatures: normal; font-variant-caps: normal; font-weight: 400; letter-spacing: normal; orphans: 2; text-align: center; text-indent: 0px; text-transform: none; widows: 2; word-spacing: 0px; -webkit-text-stroke-width: 0px; background-color: rgb(251, 251, 251); text-decoration-thickness: initial; text-decoration-style: initial; text-decoration-color: initial; float: none; display: inline !important;&quot;&gt;Номер телефона&lt;/span&gt;" style="ellipse;whiteSpace=wrap;html=1;" parent="1" vertex="1">
          <mxGeometry x="1160" y="390" width="130" height="70" as="geometry" />
        </mxCell>
        <mxCell id="CAQWsTvgkimqhigpGzVV-16" value="&lt;span style=&quot;color: rgb(0, 0, 0); font-family: Helvetica; font-size: 12px; font-style: normal; font-variant-ligatures: normal; font-variant-caps: normal; font-weight: 400; letter-spacing: normal; orphans: 2; text-align: center; text-indent: 0px; text-transform: none; widows: 2; word-spacing: 0px; -webkit-text-stroke-width: 0px; background-color: rgb(251, 251, 251); text-decoration-thickness: initial; text-decoration-style: initial; text-decoration-color: initial; float: none; display: inline !important;&quot;&gt;Адрес&lt;/span&gt;" style="ellipse;whiteSpace=wrap;html=1;" parent="1" vertex="1">
          <mxGeometry x="1111" y="470" width="130" height="70" as="geometry" />
        </mxCell>
        <mxCell id="CAQWsTvgkimqhigpGzVV-17" value="&lt;span style=&quot;color: rgb(0, 0, 0); font-family: Helvetica; font-size: 12px; font-style: normal; font-variant-ligatures: normal; font-variant-caps: normal; font-weight: 400; letter-spacing: normal; orphans: 2; text-align: center; text-indent: 0px; text-transform: none; widows: 2; word-spacing: 0px; -webkit-text-stroke-width: 0px; background-color: rgb(251, 251, 251); text-decoration-thickness: initial; text-decoration-style: initial; text-decoration-color: initial; float: none; display: inline !important;&quot;&gt;Баланс&lt;/span&gt;" style="ellipse;whiteSpace=wrap;html=1;" parent="1" vertex="1">
          <mxGeometry x="840" y="510" width="130" height="70" as="geometry" />
        </mxCell>
        <mxCell id="CAQWsTvgkimqhigpGzVV-18" value="&lt;span style=&quot;color: rgb(0, 0, 0); font-family: Helvetica; font-size: 12px; font-style: normal; font-variant-ligatures: normal; font-variant-caps: normal; font-weight: 400; letter-spacing: normal; orphans: 2; text-align: center; text-indent: 0px; text-transform: none; widows: 2; word-spacing: 0px; -webkit-text-stroke-width: 0px; background-color: rgb(251, 251, 251); text-decoration-thickness: initial; text-decoration-style: initial; text-decoration-color: initial; float: none; display: inline !important;&quot;&gt;Статус&lt;br&gt;&lt;/span&gt;" style="ellipse;whiteSpace=wrap;html=1;" parent="1" vertex="1">
          <mxGeometry x="990" y="520" width="130" height="70" as="geometry" />
        </mxCell>
        <mxCell id="CAQWsTvgkimqhigpGzVV-19" value="" style="endArrow=none;html=1;rounded=0;entryX=0.023;entryY=0.6;entryDx=0;entryDy=0;exitX=1;exitY=0.25;exitDx=0;exitDy=0;entryPerimeter=0;" parent="1" source="CAQWsTvgkimqhigpGzVV-3" target="CAQWsTvgkimqhigpGzVV-8" edge="1">
          <mxGeometry width="50" height="50" relative="1" as="geometry">
            <mxPoint x="950" y="340" as="sourcePoint" />
            <mxPoint x="1130" y="265" as="targetPoint" />
          </mxGeometry>
        </mxCell>
        <mxCell id="CAQWsTvgkimqhigpGzVV-20" value="" style="endArrow=none;html=1;rounded=0;entryX=0;entryY=0.5;entryDx=0;entryDy=0;exitX=1;exitY=0.75;exitDx=0;exitDy=0;" parent="1" source="CAQWsTvgkimqhigpGzVV-3" target="CAQWsTvgkimqhigpGzVV-13" edge="1">
          <mxGeometry width="50" height="50" relative="1" as="geometry">
            <mxPoint x="955" y="355" as="sourcePoint" />
            <mxPoint x="1170" y="345" as="targetPoint" />
          </mxGeometry>
        </mxCell>
        <mxCell id="CAQWsTvgkimqhigpGzVV-21" value="" style="endArrow=none;html=1;rounded=0;entryX=0;entryY=0;entryDx=0;entryDy=0;exitX=1;exitY=1;exitDx=0;exitDy=0;" parent="1" source="CAQWsTvgkimqhigpGzVV-3" target="CAQWsTvgkimqhigpGzVV-16" edge="1">
          <mxGeometry width="50" height="50" relative="1" as="geometry">
            <mxPoint x="955" y="368" as="sourcePoint" />
            <mxPoint x="1170" y="435" as="targetPoint" />
          </mxGeometry>
        </mxCell>
        <mxCell id="CAQWsTvgkimqhigpGzVV-22" value="" style="endArrow=none;html=1;rounded=0;entryX=0.345;entryY=0.02;entryDx=0;entryDy=0;exitX=0.75;exitY=1;exitDx=0;exitDy=0;entryPerimeter=0;" parent="1" source="CAQWsTvgkimqhigpGzVV-3" target="CAQWsTvgkimqhigpGzVV-18" edge="1">
          <mxGeometry width="50" height="50" relative="1" as="geometry">
            <mxPoint x="955" y="380" as="sourcePoint" />
            <mxPoint x="1140" y="490" as="targetPoint" />
          </mxGeometry>
        </mxCell>
        <mxCell id="CAQWsTvgkimqhigpGzVV-23" value="" style="endArrow=none;html=1;rounded=0;entryX=0.466;entryY=0;entryDx=0;entryDy=0;exitX=0.535;exitY=1.046;exitDx=0;exitDy=0;entryPerimeter=0;exitPerimeter=0;" parent="1" source="CAQWsTvgkimqhigpGzVV-3" target="CAQWsTvgkimqhigpGzVV-17" edge="1">
          <mxGeometry width="50" height="50" relative="1" as="geometry">
            <mxPoint x="925" y="380" as="sourcePoint" />
            <mxPoint x="1045" y="531" as="targetPoint" />
          </mxGeometry>
        </mxCell>
      </root>
    </mxGraphModel>
  </diagram>
</mxfile>
